<?xml version="1.0" standalone="no"?>
<!DOCTYPE svg PUBLIC "-//W3C//DTD SVG 1.1//EN" "http://www.w3.org/Graphics/SVG/1.1/DTD/svg11.dtd" >
<svg xmlns="http://www.w3.org/2000/svg">
<metadata>
This is a custom SVG webfont generated by Font Squirrel.
Designer    : arro
</metadata>
<defs>
<font id="webfontr6BobTCr" horiz-adv-x="583" >
<font-face units-per-em="1000" ascent="727" descent="-273" />
<missing-glyph horiz-adv-x="242" />
<glyph unicode=" "  horiz-adv-x="242" />
<glyph unicode="&#x09;" horiz-adv-x="242" />
<glyph unicode="&#xa0;" horiz-adv-x="242" />
<glyph unicode="!" horiz-adv-x="197" d="M144 35q0 -20 -13.5 -33.5t-33.5 -13.5q-18 0 -30.5 12t-12.5 31q0 20 13 33.5t33 13.5q19 0 31.5 -12.5t12.5 -30.5zM97 195q-15 0 -16 4q-18 224 -27 432q-1 17 8.5 23.5t34.5 6.5t34.5 -6.5t8.5 -23.5q-9 -208 -27 -432q-1 -4 -16 -4z" />
<glyph unicode="&#x22;" horiz-adv-x="356" d="M308 629q0 -78 -101 -129q-8 -2 -14 8.5t0 16.5q37 23 49.5 38t12.5 32q0 27 -30 43q-21 11 -21 35q0 16 9.5 27t27.5 11q30 0 48.5 -23t18.5 -59zM159 629q0 -78 -101 -129q-8 -2 -14 8.5t0 16.5q37 23 49.5 38t12.5 32q0 27 -30 43q-21 11 -21 35q0 16 9.5 27t27.5 11 q30 0 48.5 -23t18.5 -59z" />
<glyph unicode="#" horiz-adv-x="439" d="M403 294q6 0 4 -5l-8 -40q-1 -5 -6 -5h-86q-4 0 -6 -5l-16 -78q-2 -5 4 -5h80q5 0 4 -5l-8 -40q-2 -5 -6 -5h-80q-4 0 -6 -5l-31 -147q-4 -1 -15 1.5t-13 4.5l30 141q2 5 -4 5h-80q-5 0 -6 -5l-31 -147q-4 -1 -15 1.5t-13 4.5l30 141q0 5 -4 5h-86q-4 0 -4 5l8 40 q2 5 6 5h86q4 0 6 5l16 78q0 5 -4 5h-80q-6 0 -4 5l8 40q2 5 6 5h80q6 0 6 5l30 147q4 1 15 -1.5t13 -4.5l-29 -141q0 -5 4 -5h80q4 0 6 5l30 147q4 1 15 -1.5t13 -4.5l-29 -141q0 -5 4 -5h86zM272 239q0 5 -4 5h-80q-5 0 -6 -5l-16 -78q-2 -5 4 -5h80q5 0 6 5z" />
<glyph unicode="$" horiz-adv-x="392" d="M216 412q62 0 98 -28q4 -3 4 -11q0 -19 -5 -36q-1 -3 -6.5 -3.5t-6.5 1.5q-22 47 -85 47q-3 -2 -3 -3v-133q0 -6 4 -7q62 -24 90 -53t28 -71q0 -49 -35 -81t-83 -42q-4 -1 -4 -5v-74q-10 -2 -15 -2q-7 0 -15 2v71q0 4 -5 4q-83 0 -119 28q-4 3 -4 11q0 18 5 36q1 3 6 3 t7 -2q31 -46 105 -46q5 0 5 5v149q-2 5 -4 6q-102 39 -102 119q0 42 31.5 72.5t71.5 38.5q3 0 3 3v76q8 2 15 2q5 0 15 -2v-72q0 -3 4 -3zM179 373q-35 -17 -35 -55q0 -27 10 -44t24 -21q4 0 4 2v116q0 2 -3 2zM217 164q-5 2 -5 -3v-131q0 -5 5 -4q49 21 49 74q0 42 -49 64z " />
<glyph unicode="%" horiz-adv-x="622" d="M469 217q49 0 81.5 -35t32.5 -90t-32.5 -90t-81.5 -35t-81.5 35t-32.5 90t32.5 90t81.5 35zM469 -9q48 0 48 101t-48 101t-48 -101t48 -101zM153 433q49 0 81.5 -35t32.5 -90t-32.5 -90t-81.5 -35t-81.5 35t-32.5 90t32.5 90t81.5 35zM153 207q48 0 48 101t-48 101 t-48 -101t48 -101zM163 -59q-5 -1 -14.5 5.5t-9.5 10.5l320 502q4 1 14 -5.5t10 -10.5z" />
<glyph unicode="&#x26;" horiz-adv-x="707" d="M599 371l-85 -14q-1 0 -1 -1t1 -2q51 -21 79 -61.5t28 -91.5q0 -93 -78.5 -153t-199.5 -60q-131 0 -210 49.5t-79 144.5q0 61 46.5 110t114.5 69q1 0 1 1.5t-1 2.5q-54 8 -90.5 47t-36.5 90q0 71 64 115t156 44q32 0 66.5 -9.5t52.5 -24.5q3 -3 5 -10q0 -24 -13 -54 q-3 -4 -10 -4t-8 4q-34 63 -104 63q-60 0 -95.5 -31t-35.5 -77q0 -55 31.5 -90.5t84.5 -45.5q4 -2 2.5 -11.5t-5.5 -11.5q-56 -8 -98.5 -45t-42.5 -102q0 -82 59.5 -125t160.5 -43q100 0 161 47t61 119q0 62 -39 100t-92 38q-37 0 -73 -17q-5 -2 -11 3.5t-4 10.5 q17 29 40 40t66 16q73 8 137 21q35 7 52.5 16t36.5 28q5 3 12 -1t6 -10q-16 -44 -38 -59.5t-74 -24.5z" />
<glyph unicode="'" horiz-adv-x="207" d="M159 629q0 -78 -101 -129q-8 -2 -14 8.5t0 16.5q37 23 49.5 38t12.5 32q0 27 -30 43q-21 11 -21 35q0 16 9.5 27t27.5 11q30 0 48.5 -23t18.5 -59z" />
<glyph unicode="(" horiz-adv-x="330" d="M144 307q0 -109 38 -211.5t110 -174.5q0 -4 -6 -10t-10 -6q-208 156 -208 402t208 402q4 0 10 -6t6 -10q-72 -72 -110 -174.5t-38 -211.5z" />
<glyph unicode=")" horiz-adv-x="330" d="M186 307q0 109 -38 211.5t-110 174.5q0 4 6 10t10 6q208 -156 208 -402t-208 -402q-4 0 -10 6t-6 10q72 72 110 174.5t38 211.5z" />
<glyph unicode="*" horiz-adv-x="324" d="M162 407q-8 0 -12 3q0 69 -3 117q0 2 -3 2q-44 -22 -103 -56q-4 1 -8.5 8t-2.5 12q66 37 101 60q2 2 2 3t-2 3q-35 23 -101 60q-2 5 2.5 12t8.5 8q59 -34 103 -56q3 0 3 2q3 48 3 117q4 3 12 3t12 -3q0 -69 3 -117q0 -2 3 -2l103 56q4 -1 8.5 -8t2.5 -12 q-66 -37 -101 -60q-2 -2 -2 -3t2 -3q35 -23 101 -60q2 -5 -2.5 -12t-8.5 -8l-103 56q-3 0 -3 -2q-3 -48 -3 -117q-4 -3 -12 -3z" />
<glyph unicode="+" horiz-adv-x="528" d="M279 183v-190q-10 -2 -15 -2t-15 2v190q0 4 -4 4h-190q-2 6 -2 13t2 13h190q4 0 4 4v190q10 2 15 2t15 -2v-190q0 -4 4 -4h190q2 -6 2 -13t-2 -13h-190q-4 0 -4 -4z" />
<glyph unicode="," horiz-adv-x="196" d="M151 -5q0 -78 -101 -129q-8 -2 -14 8.5t0 16.5q37 23 49.5 38t12.5 32q0 27 -30 43q-21 11 -21 35q0 16 9.5 27t27.5 11q30 0 48.5 -23t18.5 -59z" />
<glyph unicode="-" horiz-adv-x="309" d="M219 220q15 1 27 4q3 1 6 -3t2 -7q-19 -19 -32.5 -24.5t-34.5 -5.5q-60 0 -99 -4q-16 -1 -25 -5q-3 -1 -6 3t-2 7q20 20 31.5 25.5t33.5 5.5q52 0 99 4z" />
<glyph unicode="." horiz-adv-x="200" d="M145 35q0 -20 -13.5 -33.5t-33.5 -13.5q-18 0 -30.5 12t-12.5 31q0 20 13 33.5t33 13.5q19 0 31.5 -12.5t12.5 -30.5z" />
<glyph unicode="/" horiz-adv-x="358" d="M4 -56l321 716q4 0 15.5 -5t13.5 -8l-321 -716q-4 0 -15.5 5t-13.5 8z" />
<glyph unicode="0" horiz-adv-x="508" d="M257 413q89 0 149.5 -60.5t60.5 -149.5q0 -88 -64 -152t-153 -64q-88 0 -148.5 60.5t-60.5 149.5t63.5 152.5t152.5 63.5zM257 51q78 0 127.5 36t49.5 110t-52.5 113t-130.5 39t-127.5 -36t-49.5 -110t52.5 -113t130.5 -39z" />
<glyph unicode="1" horiz-adv-x="322" d="M205 410q2 1 5.5 -0.5t3.5 -3.5l-4 -173q0 -165 4 -229q0 -4 -4 -4h-66q-4 0 -4 4q4 64 4 196v145q0 5 -5 7q-37 5 -95 5q-2 1 -2 6t2 6q27 4 55.5 11t60.5 16z" />
<glyph unicode="2" horiz-adv-x="372" d="M333 59q2 1 8.5 -1t6.5 -3q0 -21 -9 -52q-3 -5 -8 -5q-53 2 -160 2q-120 0 -152 -2q-2 0 -3.5 3t-0.5 5q43 33 89 84q65 70 91 114t26 92q0 86 -74 86q-41 0 -61 -43q-2 -2 -6 -2t-6 2q-6 18 -6 38q0 6 5 9q41 27 107 27q50 0 83.5 -27t33.5 -70q0 -30 -19.5 -65.5 t-74.5 -96.5q-49 -54 -84 -98q-1 -1 -0.5 -2.5t1.5 -1.5q35 -2 103 -2q56 0 110 9z" />
<glyph unicode="3" horiz-adv-x="363" d="M76 150q72 48 97 79.5t25 73.5q0 79 -74 79q-42 0 -63 -41q-1 -1 -6 -1t-6 1q-4 16 -4 38q2 5 5 7q41 27 107 27q50 0 83.5 -27t33.5 -70q0 -40 -28 -72.5t-84 -67.5q-1 -1 -0.5 -2.5t1.5 -1.5q64 0 103.5 -29t39.5 -81q0 -76 -74 -149t-183 -123q-5 -2 -9 0 q-20 12 -26 29q0 9 8 9q27 4 63 19.5t56 29.5q89 61 89 157q0 114 -94 114q-22 0 -46 -18q-5 -2 -11.5 7t-2.5 13z" />
<glyph unicode="4" horiz-adv-x="461" d="M443 108q9 0 9 -4q0 -22 -6 -36q-2 -3 -6 -3q-70 0 -108 -3q-5 -1 -5 -5q0 -182 4 -246q0 -4 -4 -4h-67q-4 0 -4 4q5 80 5 247q0 4 -4 4q-167 0 -248 -2q-6 0 -4 8q56 52 147.5 152t158.5 180q4 4 19 4q3 0 3 -3q-6 -154 -6 -293q0 -4 4 -4q76 0 112 4zM261 110 q0 7 1.5 84t2.5 98q0 1 -1 2t-2 0q-102 -113 -159 -184q-2 -4 2 -4q70 -4 152 0q4 1 4 4z" />
<glyph unicode="5" horiz-adv-x="345" d="M95 380q1 16 90 20q53 2 111 13q6 0 7 -3q0 -17 -8 -45q-3 -5 -9 -5q-98 -4 -157 -13q-5 0 -8 -6q-3 -5 -10 -44q-4 -23 8.5 -41.5t57.5 -54.5q54 -44 74 -74t20 -65q0 -76 -74 -149t-183 -123q-4 -2 -9 0q-20 12 -26 29q0 9 8 9q27 4 63 19.5t56 29.5q89 61 89 157 q0 57 -61 110q-47 40 -59.5 58t-5.5 44q19 72 26 134z" />
<glyph unicode="6" horiz-adv-x="418" d="M163 211q-6 -1 -9.5 7t0.5 12q64 37 102 37q54 0 87.5 -31t33.5 -84q0 -72 -49.5 -118t-119.5 -46q-74 0 -117 48.5t-43 124.5q0 119 86 233t223 178q5 0 9.5 -4.5t5 -9t-2.5 -7.5q-114 -57 -181.5 -152.5t-67.5 -210.5q0 -168 108 -168q36 0 57.5 28t21.5 69 q0 51 -23.5 81t-67.5 30q-22 0 -53 -17z" />
<glyph unicode="7" horiz-adv-x="407" d="M185 131q54 86 124 213q1 1 0.5 2.5t-1.5 1.5q-35 2 -136 2q-62 0 -116 -9q-2 -1 -8.5 1t-6.5 3q0 21 9 52q2 5 8 5q55 -2 163 -2q140 0 172 2q1 0 3 -3t1 -5q-58 -74 -185 -282q-150 -247 -184 -307q-3 -3 -12 -5q-26 0 -44 7q-4 6 1 13q11 11 21.5 23.5t25.5 32.5 l24 35q10 14 31 47l31 48l38 60z" />
<glyph unicode="8" horiz-adv-x="400" d="M249 243q64 -48 87 -82.5t23 -79.5q0 -63 -46 -108t-116 -45q-69 0 -112.5 37t-43.5 105q0 47 26 82.5t81 79.5q3 3 2 4q-47 36 -70.5 69t-23.5 76q0 57 43.5 95t102.5 38q61 0 100 -34.5t39 -87.5q0 -71 -92 -145q-2 -2 0 -4zM220 264q2 -2 4 0q33 29 45 55t12 62 q0 46 -22.5 74t-62.5 28q-34 0 -56 -23t-22 -59q0 -39 24 -67.5t78 -69.5zM200 -40q39 0 66 29t27 73q0 41 -20.5 69t-89.5 83q-2 2 -4 0q-41 -29 -59 -59.5t-18 -76.5q0 -55 27.5 -86.5t70.5 -31.5z" />
<glyph unicode="9" horiz-adv-x="418" d="M255 189q6 1 9.5 -7t-0.5 -12q-61 -37 -102 -37q-54 0 -87.5 31t-33.5 84q0 72 49.5 118t119.5 46q74 0 117 -48.5t43 -124.5q0 -119 -86 -233t-223 -178q-5 0 -9.5 4.5t-5 9t2.5 7.5q114 57 181.5 152.5t67.5 210.5q0 168 -108 168q-36 0 -57.5 -28t-21.5 -69 q0 -51 23.5 -81t67.5 -30q22 0 53 17z" />
<glyph unicode=":" horiz-adv-x="200" d="M145 35q0 -20 -13.5 -33.5t-33.5 -13.5q-18 0 -30.5 12t-12.5 31q0 20 13 33.5t33 13.5q19 0 31.5 -12.5t12.5 -30.5zM145 369q0 -20 -13.5 -33.5t-33.5 -13.5q-18 0 -30.5 12t-12.5 31q0 20 13 33.5t33 13.5q19 0 31.5 -12.5t12.5 -30.5z" />
<glyph unicode=";" horiz-adv-x="196" d="M141 369q0 -20 -13.5 -33.5t-33.5 -13.5q-18 0 -30.5 12t-12.5 31q0 20 13 33.5t33 13.5q19 0 31.5 -12.5t12.5 -30.5zM151 -5q0 -78 -101 -129q-8 -2 -14 8.5t0 16.5q37 23 49.5 38t12.5 32q0 27 -30 43q-21 11 -21 35q0 16 9.5 27t27.5 11q30 0 48.5 -23t18.5 -59z" />
<glyph unicode="&#x3c;" horiz-adv-x="531" d="M82 207l392 -193q0 -4 -5.5 -14.5t-8.5 -12.5l-413 206q-2 3 -2 16t2 17l414 206q4 -2 8 -10.5t4 -13.5l-391 -194q-2 -2 -2 -4t2 -3z" />
<glyph unicode="=" horiz-adv-x="546" d="M482 269h-418q-2 6 -2 13t2 13h418q2 -6 2 -13t-2 -13zM482 125h-418q-2 6 -2 13t2 13h418q2 -6 2 -13t-2 -13z" />
<glyph unicode="&#x3e;" horiz-adv-x="531" d="M449 212l-392 193q0 4 5.5 14.5t8.5 12.5l413 -206q2 -3 2 -16t-2 -17l-414 -206q-4 2 -8 10.5t-4 13.5l391 194q2 2 0 7z" />
<glyph unicode="?" horiz-adv-x="335" d="M171 35q0 -20 -13.5 -33.5t-33.5 -13.5q-18 0 -30.5 12t-12.5 31q0 20 13 33.5t33 13.5q19 0 31.5 -12.5t12.5 -30.5zM133 581q-41 2 -56 14.5t-15 41.5q0 24 28 24q77 0 132 -53.5t55 -135.5q0 -50 -20.5 -78t-73.5 -57q-59 -33 -59 -73q0 -37 7 -59q0 -5 -8.5 -7.5 t-12.5 1.5q-32 58 -32 102q0 27 17.5 46t63.5 43q43 23 63.5 47t20.5 55q0 37 -31.5 62t-78.5 27z" />
<glyph unicode="@" horiz-adv-x="744" d="M488 318l12 30q4 8 10 9q30 4 51 4q7 -2 5 -8q-20 -46 -60 -156q-17 -52 -12.5 -67.5t28.5 -15.5q66 0 108 52.5t42 133.5q0 88 -61.5 146t-172.5 58q-77 0 -152 -43t-125 -123.5t-50 -176.5q0 -127 71.5 -191.5t189.5 -64.5q93 0 186 58q6 2 11 -5.5t1 -12.5 q-108 -65 -231 -65q-121 0 -202 71.5t-81 193.5q0 114 58 203.5t148 135.5t192 46q100 0 174 -64.5t74 -155.5q0 -106 -60.5 -165.5t-149.5 -59.5q-39 0 -57 15.5t-7 44.5q0 1 -1 2t-2 0q-67 -82 -137 -82q-24 0 -40.5 17t-16.5 44q0 87 66.5 150.5t139.5 63.5q31 0 46 -22 q3 -2 5 0zM461 248q24 67 -29 67q-52 0 -93.5 -55.5t-41.5 -113.5q0 -14 10.5 -24.5t24.5 -10.5q35 0 71 38.5t58 98.5z" />
<glyph unicode="A" d="M294 658q174 -451 280 -652q2 -8 -7 -8q-66 0 -87 2q-8 1 -10 6q-18 61 -95 253q-3 5 -8 7q-62 2 -101 2q-45 0 -101 -2q-9 -2 -12 -10q-63 -155 -92 -254q0 -2 -3 -2q-26 -2 -56 -2q-3 0 -4.5 3t-0.5 5q72 151 124 276l152 376q3 5 10.5 5t10.5 -5zM177 316q-2 -8 6 -10 q31 -2 80 -2q52 0 85 2q8 2 5 10l-85 208q-4 5 -7 0z" />
<glyph unicode="B" horiz-adv-x="494" d="M310 346q139 -31 139 -151q0 -93 -66.5 -147t-159.5 -54q-158 0 -158 10q4 103 4 320q0 140 -4 320q0 10 158 10q202 0 202 -151q0 -58 -33 -96t-82 -57q-2 -2 0 -4zM139 615v-258q0 -5 79 -5q60 0 91.5 36.5t31.5 100.5q0 131 -120 131q-82 0 -82 -5zM221 28 q61 0 102.5 43t41.5 109q0 138 -131 138q-95 0 -95 -5q0 -170 4 -242q2 -27 16 -35t62 -8z" />
<glyph unicode="C" horiz-adv-x="647" d="M364 622q-107 0 -176 -72t-69 -196q0 -156 68 -244t183 -88q99 0 165 69q36 38 44 77q3 3 14.5 1.5t12.5 -5.5q0 -54 -12 -77q-32 -46 -99 -73t-146 -27q-137 0 -225.5 92.5t-88.5 236.5q0 158 96.5 251.5t256.5 93.5q127 0 203 -53q6 -6 6 -16q-6 -34 -14 -49 q-1 -3 -7 -3t-10 3q-55 79 -202 79z" />
<glyph unicode="D" horiz-adv-x="682" d="M286 654q361 0 361 -286q0 -172 -110 -273t-274 -101q-198 0 -198 10q4 103 4 320q0 140 -4 320q0 10 221 10zM286 28q119 0 198 81.5t79 236.5q0 133 -76.5 203.5t-202.5 70.5q-145 0 -145 -4v-292q0 -178 4 -253q1 -15 9.5 -23t40.5 -14t93 -6z" />
<glyph unicode="E" horiz-adv-x="411" d="M223 614q-83 0 -83 -4q-2 -100 -2 -258q0 -4 87 -4q74 0 103 4q4 0 4 -4q-1 -16 -7 -33q-3 -5 -11 -5q-44 4 -89 4q-87 0 -87 -4q0 -171 2 -220q1 -25 7.5 -36.5t24.5 -15.5q20 -4 58 -4q94 0 146 5q9 0 11 -7q-2 -15 -6 -31q-1 -3 -5 -3q-32 2 -143 2q-85 0 -165 -2 q-4 0 -4 4q4 180 4 322t-4 322q0 4 4 4q53 -2 155 -2q97 0 133 2q4 0 5 -3q3 -12 5 -33q-1 -5 -11 -5q-65 5 -132 5z" />
<glyph unicode="F" horiz-adv-x="373" d="M138 310q0 -126 4 -306q0 -4 -4 -4h-70q-4 0 -4 4q4 180 4 320q0 142 -4 322q0 4 4 4q53 -2 155 -2q97 0 133 2q4 0 5 -3q3 -12 5 -33q-1 -5 -11 -5q-65 5 -132 5q-83 0 -83 -4q-2 -100 -2 -258q0 -4 87 -4q74 0 103 4q4 0 4 -4q-1 -16 -7 -33q-3 -5 -11 -5q-44 4 -89 4 q-87 0 -87 -4z" />
<glyph unicode="G" horiz-adv-x="659" d="M603 69q0 -7 -4 -11q-59 -39 -114 -55.5t-136 -16.5q-137 0 -225.5 92.5t-88.5 236.5q0 158 96.5 251.5t256.5 93.5q127 0 203 -53q6 -6 6 -16q-6 -34 -14 -49q-1 -3 -7 -3t-10 3q-55 79 -202 79q-107 0 -176 -72t-69 -196q0 -155 72.5 -243.5t188.5 -88.5q93 0 148 42 q5 3 5 16q0 146 -4 215q0 4 4 4h70q4 0 4 -4q-4 -72 -4 -225z" />
<glyph unicode="H" horiz-adv-x="664" d="M332 314q-194 0 -194 -4q0 -130 4 -306q0 -4 -4 -4h-70q-4 0 -4 4q4 180 4 320t-4 320q0 4 4 4h70q4 0 4 -4q-4 -166 -4 -291q0 -5 194 -5t194 5q0 125 -4 291q0 4 4 4h70q4 0 4 -4q-4 -180 -4 -320t4 -320q0 -4 -4 -4h-70q-4 0 -4 4q4 176 4 306q0 4 -194 4z" />
<glyph unicode="I" horiz-adv-x="206" d="M138 324q0 -140 4 -320q0 -4 -4 -4h-70q-4 0 -4 4q4 180 4 320t-4 320q0 4 4 4h70q4 0 4 -4q-4 -180 -4 -320z" />
<glyph unicode="J" horiz-adv-x="206" d="M148 94q4 -114 -34 -177q-51 -84 -139 -140q-2 -1 -7 4t-3 7q48 39 70.5 80.5t31.5 113.5t9 212q0 225 -5 450q0 4 4 4h70q4 0 4 -4q-4 -180 -4 -320q0 -145 3 -230z" />
<glyph unicode="K" horiz-adv-x="545" d="M138 342q0 -4 5 -4q17 0 68 51q124 123 235 254q4 5 11 5q30 2 65 2q2 0 4 -3t1 -5q-45 -32 -143 -128t-166 -174q-2 -3 0 -6q154 -178 320 -328q2 -8 -5 -8q-15 0 -47 1t-47 1q-31 0 -44 18q-59 79 -180 213q-41 45 -52 54.5t-21 9.5q-4 0 -4 -3q0 -108 4 -288 q0 -4 -4 -4h-70q-4 0 -4 4q4 180 4 320t-4 320q0 4 4 4h70q4 0 4 -4q-4 -174 -4 -302z" />
<glyph unicode="L" horiz-adv-x="391" d="M138 324q0 -185 2 -234q1 -25 7.5 -36.5t24.5 -15.5q20 -4 58 -4q94 0 146 5q9 0 11 -7q-2 -15 -6 -31q-1 -3 -5 -3q-32 2 -143 2q-85 0 -165 -2q-4 0 -4 4q4 180 4 322q0 140 -4 320q0 4 4 4h70q4 0 4 -4q-4 -180 -4 -320z" />
<glyph unicode="M" horiz-adv-x="770" d="M696 650q6 0 6 -6q-8 -23 -8 -43q0 -345 18 -597q0 -4 -4 -4h-71q-4 0 -4 4q1 47 -4.5 244.5t-10.5 290.5q-2 3 -4 1q-99 -191 -251 -524q-11 -10 -21 0q-109 250 -238 501q-4 4 -4 -1q-14 -381 -13 -512q0 -4 -4 -4h-36q-4 0 -4 4q6 101 12.5 306t6.5 291q0 8 -4 16 q-10 19 -15 27q-4 2 3 6q42 0 78 -2q5 0 8 -4q103 -246 238 -507q2 -2 4 0q128 250 239 505q2 5 8 6q18 2 75 2z" />
<glyph unicode="N" horiz-adv-x="641" d="M533 644q0 4 4 4h40q4 0 4 -4q-4 -148 -4 -320q0 -202 3 -336q0 -3 -5.5 -4t-9.5 1l-245 307l-213 257q-2 2 -4 -1q2 -68 2 -244q0 -132 4 -300q0 -4 -4 -4h-40q-4 0 -4 4q4 148 4 320v258q0 15 -7 26q-4 7 -24 34q-1 3 0 5.5t3 2.5q36 0 84 -2q5 0 9 -4 q170 -223 405 -498q2 -2 4 1q-2 68 -2 197q0 132 -4 300z" />
<glyph unicode="O" horiz-adv-x="744" d="M373 660q148 0 242 -93t94 -234q0 -157 -103.5 -251t-249.5 -94q-141 0 -231 93t-90 234q0 153 95.5 249t242.5 96zM378 22q103 0 175 73t72 207q0 145 -79 234.5t-195 89.5q-97 0 -164.5 -73t-67.5 -207q0 -145 70.5 -234.5t188.5 -89.5z" />
<glyph unicode="P" horiz-adv-x="428" d="M138 324q0 -140 4 -320q0 -4 -4 -4h-70q-4 0 -4 4q4 180 4 320t-4 320q0 10 158 10q93 0 142.5 -39.5t49.5 -114.5q0 -87 -63.5 -135.5t-166.5 -54.5q-6 1 -7.5 11t4.5 14q68 6 110.5 44.5t42.5 106.5q0 134 -124 134q-72 0 -72 -4v-292z" />
<glyph unicode="Q" horiz-adv-x="750" d="M789 -167q3 -1 3 -5q-26 -48 -67 -86q-3 -3 -8 -1q-335 160 -408 190q-3 3 1 6q26 17 46 45q2 5 -2 5q-138 0 -228.5 93.5t-90.5 234.5q0 153 95.5 249t242.5 96q148 0 242 -93t94 -234q0 -142 -94 -237.5t-222 -108.5q-6 -2 -6 -5q0 -21 22 -30q157 -65 274 -98 q57 -16 106 -21zM119 346q0 -145 70.5 -234.5t188.5 -89.5q103 0 175 73t72 207q0 145 -79 234.5t-195 89.5q-97 0 -164.5 -73t-67.5 -207z" />
<glyph unicode="R" horiz-adv-x="505" d="M515 2q3 -2 -2 -4q-26 2 -66 2q-23 0 -36 6.5t-25 25.5q-33 53 -91 135.5t-96 130.5q-11 12 -25 12q-36 0 -36 -4q0 -152 4 -302q0 -4 -4 -4h-70q-4 0 -4 4q4 180 4 320t-4 320q0 10 158 10q95 0 146 -37.5t51 -111.5q0 -68 -41.5 -113.5t-101.5 -63.5q-4 -2 0 -6 q42 -63 117.5 -164t121.5 -156zM191 344q67 0 107.5 36.5t40.5 105.5q0 65 -33.5 99.5t-95.5 34.5q-72 0 -72 -4v-268q0 -4 53 -4z" />
<glyph unicode="S" horiz-adv-x="475" d="M270 626q-51 0 -82.5 -29t-31.5 -84q0 -58 26 -86.5t88 -53.5q86 -36 121 -77.5t35 -103.5q0 -91 -63 -147.5t-160 -56.5q-44 0 -89 13t-73 34q-7 7 -6 17q2 25 9 44q1 2 7 3t9 -2q24 -34 64.5 -54.5t82.5 -20.5q66 0 103.5 36.5t37.5 95.5q0 56 -30 87.5t-102 61.5 q-68 29 -101 67.5t-33 101.5q0 83 55 135.5t142 52.5q73 0 132 -39q6 -6 6 -16q-5 -30 -15 -48q-1 -3 -8.5 -2.5t-8.5 4.5q-33 67 -115 67z" />
<glyph unicode="T" horiz-adv-x="573" d="M254 0q-4 0 -4 4q4 180 4 320v284q0 6 -80 6q-95 0 -150 -10q-4 -1 -10 1t-6 5q3 23 8 39q2 3 5 3q100 -4 268 -4q208 0 271 4q4 0 5 -3q-1 -20 -10 -41q-1 -3 -8.5 -4.5t-11.5 0.5q-56 10 -131 10q-80 0 -80 -6v-284q0 -140 4 -320q0 -4 -4 -4h-70z" />
<glyph unicode="U" horiz-adv-x="565" d="M62 213q0 251 -4 431q0 4 4 4h70q4 0 4 -4q-4 -180 -4 -401q0 -115 42.5 -168t129.5 -53q72 0 118.5 49t46.5 139q0 266 -4 434q0 4 4 4h40q4 0 4 -4q-4 -148 -4 -416q0 -116 -61 -178.5t-171 -62.5q-100 0 -157.5 59t-57.5 167z" />
<glyph unicode="V" d="M113 642q30 -100 202 -518q3 -5 7 0q172 418 200 522q0 2 3 2q24 2 56 2q2 0 4 -3t1 -5q-74 -155 -128 -284l-148 -368q-3 -5 -10.5 -5t-10.5 5q-174 451 -280 652q-2 8 7 8q66 0 87 -2q8 -1 10 -6z" />
<glyph unicode="W" horiz-adv-x="895" d="M888 650q6 0 6 -8q-66 -130 -231 -652q-3 -5 -9.5 -5t-11.5 5l-182 491q-1 1 -3 1t-3 -1l-186 -491q-4 -6 -10.5 -6t-10.5 6q-171 521 -235 652q-2 6 5 8q61 0 85 -2q6 0 9 -6q17 -61 82 -259.5t83 -241.5q3 -5 6 0q107 260 181 507q3 5 10 5.5t11 -5.5 q40 -131 96.5 -288t82.5 -217q3 -5 6 0q22 56 85 249.5t78 249.5q3 4 9 6q22 2 47 2z" />
<glyph unicode="X" horiz-adv-x="511" d="M483 644q-22 -25 -95.5 -133t-99.5 -149q-2 -5 0 -8q46 -77 120 -190t114 -160q2 -6 -5 -6q-31 0 -89 2q-9 0 -14 5q-60 113 -170 283q-2 2 -5 0q-77 -112 -181 -283q-3 -5 -9 -5q-32 -2 -48 -2q-2 0 -3.5 3t-0.5 5q77 93 219 318q2 4 0 7q-137 228 -207 311q-2 8 4 8 q45 0 97 -2q5 0 8 -4q47 -101 142 -246q2 -3 5 0q99 146 155 246q4 4 8 4q13 1 51 1q7 0 4 -5z" />
<glyph unicode="Y" horiz-adv-x="492" d="M221 326q0 10 -5 18q-118 195 -204 298q-2 8 4 8q45 0 97 -2q5 0 8 -4q64 -122 153 -251q2 -3 5 0q96 141 152 251q4 4 8 4q13 1 51 1q6 0 4 -5q-72 -94 -197 -298q-6 -12 -6 -22q0 -140 4 -320q0 -4 -4 -4h-70q-4 0 -4 4q4 180 4 322z" />
<glyph unicode="Z" horiz-adv-x="585" d="M370 0q-214 0 -343 -2q-2 0 -3.5 3t-0.5 5l219 323q123 189 174 276q0 7 -4 7q-34 2 -134 2t-192 -12q-2 -1 -6 0t-4 2q0 21 7 40q1 6 7 6q57 -2 205 -2q130 0 239 2q2 0 3.5 -3t0.5 -5q-48 -68 -181 -270l-210 -329q-2 -4 2 -4q84 -4 194 -4q153 0 209 14q2 1 7 -1.5 t5 -3.5q0 -16 -6 -40q-1 -6 -6 -6q-51 2 -182 2z" />
<glyph unicode="[" horiz-adv-x="322" d="M98 -73v760q0 7 6 7q60 -2 168 -2q2 -1 2 -9.5t-2 -9.5q-29 0 -73 -7q-35 -6 -35 -41v-636q0 -35 35 -41q44 -7 73 -7q2 -1 2 -9.5t-2 -9.5q-48 0 -168 -2q-6 0 -6 7z" />
<glyph unicode="\" horiz-adv-x="358" d="M354 -56q-2 -3 -13.5 -8t-15.5 -5l-321 716q2 3 13.5 8t15.5 5z" />
<glyph unicode="]" horiz-adv-x="322" d="M224 687v-760q-2 -7 -6 -7q-122 2 -168 2q-2 1 -2 9.5t2 9.5q29 0 73 7q35 7 35 41v636q0 34 -35 41q-44 7 -73 7q-2 1 -2 9.5t2 9.5q107 0 168 2q4 0 6 -7z" />
<glyph unicode="^" horiz-adv-x="582" d="M310 636l204 -409q-1 -2 -12 -7.5t-14 -6.5l-193 389q-2 2 -4 0l-198 -389q-3 0 -13.5 5.5t-11.5 7.5l210 410q3 1 15.5 1t16.5 -1z" />
<glyph unicode="_" horiz-adv-x="448" d="M447 -83h-446q-2 6 -2 13t2 13h446q2 -6 2 -13t-2 -13z" />
<glyph unicode="`" horiz-adv-x="395" d="M128 711q32 0 63 -50q41 -67 63 -93q-1 -4 -6.5 -9t-9.5 -6q-47 37 -92 63q-51 29 -51 62q0 15 9.5 24t23.5 9z" />
<glyph unicode="a" horiz-adv-x="423" d="M396 45q4 2 8.5 -2.5t2.5 -8.5q-40 -47 -90 -47q-44 0 -54 47q0 1 -1.5 1.5t-2.5 -0.5q-47 -47 -115 -47q-44 0 -75.5 37t-31.5 88q0 32 15.5 50.5t56.5 36.5q58 25 145 49q8 3 8 46q0 45 -16 66t-56 21q-30 0 -55.5 -15.5t-35.5 -42.5q-2 -3 -7 -3.5t-7 2.5q-7 16 -7 41 q0 7 5 10q46 38 121 38q74 0 100.5 -30t24.5 -92q-3 -82 -3 -160q0 -59 7.5 -80.5t22.5 -21.5q19 0 40 17zM253 65q9 15 8 53q-1 27 -1 93q-3 3 -4 3q-60 -5 -107 -31q-22 -12 -29 -23t-7 -35q0 -42 18 -69.5t48 -27.5q23 0 44 11t30 26z" />
<glyph unicode="b" horiz-adv-x="501" d="M262 412q89 0 142 -54.5t53 -140.5q0 -107 -67.5 -168t-167.5 -61q-32 0 -58 7q-40 11 -61 11q-9 0 -33 -9q-10 -2 -10 5q7 136 7 342q0 117 -4 248q-2 56 -10 89q-1 3 1 7.5t6 5.5q33 4 73 4q4 0 4 -4q-4 -126 -4 -325q0 -1 1.5 -2t3.5 0q60 45 124 45zM237 18 q66 0 105 46t39 123q0 88 -39.5 136.5t-109.5 48.5q-26 0 -50.5 -10.5t-37.5 -27.5q-11 -15 -11 -34q0 -83 2 -193q2 -89 102 -89z" />
<glyph unicode="c" horiz-adv-x="413" d="M258 382q-63 0 -100.5 -46t-37.5 -128q0 -83 41.5 -131.5t108.5 -48.5q59 0 112 43q5 3 10.5 -3t1.5 -11q-24 -28 -66 -49t-77 -21q-93 0 -150 56.5t-57 150.5q0 97 60 157.5t152 60.5q71 0 111 -28q4 -3 4 -11q0 -19 -5 -36q-1 -3 -6.5 -3.5t-6.5 1.5q-22 47 -95 47z " />
<glyph unicode="d" horiz-adv-x="500" d="M438 694q-4 -141 -4 -350q0 -276 4 -340q0 -4 -4 -4h-64q-4 0 -4 4q2 7 2 34q0 3 -4 1q-58 -51 -125 -51q-89 0 -142 54.5t-53 140.5q0 107 67.5 168t167.5 61q41 0 85 -16q4 -2 4 2q0 63 -4 194q-2 56 -10 89q-1 3 1 7.5t6 5.5q33 4 73 4q4 0 4 -4zM357 67q11 13 11 34 q0 82 -2 192q-3 89 -102 89q-66 0 -105 -46t-39 -123q0 -88 39.5 -136.5t109.5 -48.5q53 0 88 39z" />
<glyph unicode="e" horiz-adv-x="432" d="M382 71q5 3 10.5 -3t1.5 -11q-24 -28 -66 -49t-77 -21q-93 0 -150 56.5t-57 150.5q0 95 60 156.5t143 61.5q61 0 100 -39.5t39 -95.5q0 -7 -3.5 -10.5t-20.5 -7t-51.5 -4.5t-97.5 -1h-81q-6 0 -7 -4q-5 -22 -5 -42q0 -83 41.5 -131.5t108.5 -48.5q59 0 112 43zM132 289 q-1 -5 4 -5h87q90 0 90 10q0 39 -19 63.5t-52 24.5q-40 0 -69.5 -25.5t-40.5 -67.5z" />
<glyph unicode="f" horiz-adv-x="309" d="M247 686q-102 0 -102 -168q0 -44 6 -114q2 -4 6 -4q88 0 124 4q6 0 6 -4q0 -14 -3 -24q-2 -3 -5 -3q-36 0 -117 -3q-5 0 -5 -5q7 -112 7 -208q0 -105 3 -153q0 -4 -4 -4h-66q-4 0 -4 4q5 80 5 134q0 131 -6 221q0 8 -10 8q-7 0 -40 -3q-4 2 -4.5 9.5t3.5 9.5q28 5 45 16 q2 2 2 6q-4 58 -4 93q0 96 51.5 157t135.5 61q63 0 95 -16q5 -3 5 -13q0 -20 -9 -38q-1 -3 -6.5 -3t-6.5 2q-19 22 -41 30t-61 8z" />
<glyph unicode="g" horiz-adv-x="441" d="M253 41q95 0 132 -25.5t37 -86.5q0 -83 -73 -137t-166 -54q-71 0 -114.5 35.5t-43.5 93.5q0 18 13 31q41 42 78 91q2 4 -1 7q-25 12 -35 24t-10 32q0 11 7 18q16 17 43 55q2 2 0 4q-63 43 -63 125q0 74 43.5 116t116.5 42q31 0 55 -7q20 -5 39 -5q38 0 75 4q7 0 7 -5 q0 -11 -3 -22q-2 -5 -5 -5q-26 0 -52 -2q-1 0 -2 -2.5t0 -3.5q38 -44 38 -105q0 -71 -44 -112.5t-116 -41.5q-28 0 -59 9q-3 0 -4 -1q-5 -10 -5 -19q0 -53 112 -53zM210 384q-42 0 -65.5 -29.5t-23.5 -83.5q0 -56 27 -97t68 -41q42 0 65.5 30.5t23.5 84.5q0 55 -27 95.5 t-68 40.5zM200 -232q62 0 107 39t45 102q0 39 -25 56.5t-82 17.5q-47 0 -85 3q-5 0 -7 -1q-63 -56 -63 -117q0 -45 30 -72.5t80 -27.5z" />
<glyph unicode="h" horiz-adv-x="446" d="M137 348q52 64 136 64q58 0 83.5 -34t25.5 -106q0 -160 3 -215q2 -33 5 -53q0 -4 -4 -4h-59q-11 0 -11 112v142q0 67 -16.5 92.5t-53.5 25.5q-53 0 -90 -41q-23 -27 -23 -88q0 -191 3 -239q0 -4 -4 -4h-66q-4 0 -4 4q5 80 5 340q0 117 -4 248q-2 56 -10 89q-1 3 1 7.5 t6 5.5q33 4 72 4q4 0 4 -4q-4 -141 -4 -345q0 -3 5 -1z" />
<glyph unicode="i" horiz-adv-x="210" d="M150 536q0 -20 -13.5 -33.5t-33.5 -13.5q-18 0 -30.5 12t-12.5 31q0 20 13 33.5t33 13.5q19 0 31.5 -12.5t12.5 -30.5zM138 233q0 -165 4 -229q0 -4 -4 -4h-66q-4 0 -4 4q4 64 4 196q0 78 -3 135q-2 29 -10 54q-1 3 1 7.5t6 5.5q33 4 72 4q4 0 4 -4z" />
<glyph unicode="j" horiz-adv-x="201" d="M141 536q0 -20 -13.5 -33.5t-33.5 -13.5q-18 0 -30.5 12t-12.5 31q0 20 13 33.5t33 13.5q19 0 31.5 -12.5t12.5 -30.5zM128 200q0 -124 3 -196q3 -77 -15 -124q-34 -90 -87 -143q-6 -3 -12.5 3t-4.5 12q23 34 32.5 59.5t14.5 73.5q4 41 4 255q0 138 -3 195q-2 29 -10 54 q-1 3 1 7.5t6 5.5q33 4 72 4q4 0 4 -4z" />
<glyph unicode="k" horiz-adv-x="409" d="M133 175q0 -115 4 -171q0 -4 -4 -4h-67q-4 0 -4 4q5 80 5 340q0 117 -4 248q-2 56 -10 89q-1 3 1 7.5t6 5.5q33 4 73 4q4 0 4 -4q-4 -141 -4 -481q0 -4 4 -4q16 0 55 39q80 80 127 146q4 4 11 6q34 2 47 2q2 0 3 -3t0 -5q-37 -31 -91.5 -88.5t-76.5 -88.5q-1 -3 0 -4 q115 -124 210 -208q4 -6 -2 -6q-17 1 -74 1q-31 0 -41 14q-33 46 -121 132q-33 33 -47 33q-4 0 -4 -4z" />
<glyph unicode="l" horiz-adv-x="210" d="M133 344q0 -276 4 -340q0 -4 -4 -4h-67q-4 0 -4 4q5 80 5 340q0 117 -4 248q-2 56 -10 89q-1 3 1 7.5t6 5.5q33 4 73 4q4 0 4 -4q-4 -141 -4 -350z" />
<glyph unicode="m" horiz-adv-x="695" d="M378 337q0 -1 1.5 -1.5t2.5 0.5q58 76 145 76q58 0 83.5 -34t25.5 -106q0 -160 3 -215q2 -33 5 -53q0 -4 -4 -4h-59q-11 0 -11 112v142q0 67 -16.5 92.5t-53.5 25.5q-53 0 -90 -41q-23 -27 -23 -88q0 -175 4 -239q0 -4 -4 -4h-66q-4 0 -4 4q4 64 4 250q0 67 -16.5 92.5 t-53.5 25.5q-53 0 -90 -41q-23 -27 -23 -88q0 -175 4 -239q0 -4 -4 -4h-66q-4 0 -4 4q4 64 4 196q0 78 -3 135q-2 29 -10 54q-1 3 1 7.5t6 5.5q33 4 70 4q4 0 4 -4q-2 -32 -2 -53q0 -3 4 -1q52 64 136 64q82 0 100 -75z" />
<glyph unicode="n" horiz-adv-x="451" d="M332 0q-11 0 -11 112v142q0 67 -16.5 93t-53.5 26q-52 0 -90 -42q-23 -27 -23 -88q0 -175 4 -239q0 -4 -4 -4h-66q-4 0 -4 4q4 64 4 196q0 78 -3 135q-2 29 -10 54q-1 3 1 7.5t6 5.5q33 4 70 4q4 0 4 -4q-2 -32 -2 -53q0 -3 4 -1q53 65 136 65q58 0 83.5 -34.5 t25.5 -106.5q0 -160 3 -215q2 -33 5 -53q0 -4 -4 -4h-59z" />
<glyph unicode="o" horiz-adv-x="504" d="M252 412q97 0 152.5 -58t55.5 -144q0 -101 -58 -161.5t-150 -60.5q-97 0 -152.5 58t-55.5 144q0 101 58 161.5t150 60.5zM258 18q58 0 92 42t34 118q0 89 -38 146.5t-100 57.5q-58 0 -92 -42t-34 -118q0 -89 38 -146.5t100 -57.5z" />
<glyph unicode="p" horiz-adv-x="503" d="M264 412q89 0 142 -54.5t53 -140.5q0 -107 -67.5 -168t-167.5 -61q-42 0 -85 16q-4 2 -4 -2q0 -187 4 -251q0 -4 -4 -4h-66q-4 0 -4 4q4 64 4 305q0 222 -3 279q-2 29 -10 54q-1 3 1 7.5t6 5.5q33 4 70 4q4 0 4 -4q-2 -22 -2 -33q0 -4 4 -2q60 45 125 45zM239 18 q66 0 105 46t39 123q0 88 -39.5 136.5t-109.5 48.5q-26 0 -50.5 -10.5t-37.5 -27.5q-11 -15 -11 -34q0 -83 2 -193q2 -89 102 -89z" />
<glyph unicode="q" horiz-adv-x="506" d="M357 67q11 13 11 34q0 82 -2 192q-3 89 -102 89q-66 0 -105 -46t-39 -123q0 -88 39.5 -136.5t109.5 -48.5q53 0 88 39zM368 38q0 3 -4 1q-58 -51 -125 -51q-89 0 -142 54.5t-53 140.5q0 107 67.5 168t167.5 61q33 0 58 -7q41 -11 61 -11q9 0 33 9q10 2 10 -5 q-7 -136 -7 -342q0 -241 4 -305q0 -4 -4 -4h-66q-4 0 -4 4q4 64 4 287z" />
<glyph unicode="r" horiz-adv-x="260" d="M138 336q0 -2 1.5 -2t2.5 1q13 35 38.5 53.5t53.5 19.5q8 0 8 -5q2 -30 -3 -55q-2 -7 -9 -7q-48 0 -69 -18q-23 -19 -23 -57q0 -198 4 -262q0 -4 -4 -4h-66q-4 0 -4 4q4 64 4 196q0 78 -3 135q-2 29 -10 54q-1 3 1 7.5t6 5.5q33 4 70 4q4 0 4 -4q-2 -32 -2 -66z" />
<glyph unicode="s" horiz-adv-x="344" d="M147 -12q-80 0 -116 28q-4 3 -4 11q0 18 5 36q1 3 6 3t7 -2q31 -46 104 -46q37 0 61.5 20.5t24.5 61.5q0 26 -15 43t-55 31q-57 21 -83.5 49t-26.5 72q0 50 36.5 83.5t99.5 33.5q60 0 96 -28q4 -3 4 -11q0 -19 -5 -36q-1 -3 -6.5 -3.5t-6.5 1.5q-22 47 -85 47 q-31 0 -48 -18t-17 -48q0 -56 60 -78q69 -25 94.5 -51.5t25.5 -71.5q0 -57 -45 -92t-111 -35z" />
<glyph unicode="t" horiz-adv-x="281" d="M81 104q5 105 5 258q0 6 -4 6q-14 0 -36 -3q-4 2 -4.5 9t3.5 10q39 14 60 35q23 23 33 44q2 3 9 2t8 -3q-3 -30 -3 -56q0 -6 4 -6q49 0 85 4q6 0 6 -4q0 -14 -3 -24q-2 -3 -5 -3q-43 0 -81 -3q-5 0 -5 -6q-6 -175 0 -266q2 -40 11.5 -55t27.5 -15q28 0 58 17 q4 1 7.5 -4.5t0.5 -9.5q-48 -44 -96 -44q-87 0 -81 117z" />
<glyph unicode="u" horiz-adv-x="456" d="M318 51q0 3 -4 1q-52 -64 -136 -64q-58 0 -83.5 34t-25.5 106q0 150 -3 207q-2 29 -10 54q-1 3 1 7.5t6 5.5q33 4 72 4q4 0 4 -4l-4 -256q0 -67 16.5 -92.5t53.5 -25.5q53 0 90 41q23 27 23 88q0 121 -3 178q-2 29 -10 54q-1 3 1 7.5t6 5.5q33 4 72 4q4 0 4 -4l-4 -202 q0 -132 4 -196q0 -4 -4 -4h-63q-4 0 -4 4q1 16 1 47z" />
<glyph unicode="v" horiz-adv-x="405" d="M215 -10q-1 -3 -7 -3t-7 3q-118 278 -196 404q-1 2 0.5 5t2.5 3q50 0 92 -2q5 0 7 -4q40 -117 120 -281q2 -2 4 0q75 151 124 281q2 4 5 4q20 2 46 2q6 -3 3 -8q-74 -119 -194 -404z" />
<glyph unicode="w" horiz-adv-x="653" d="M654 402q1 0 2.5 -3t0.5 -5q-71 -117 -182 -404q-2 -3 -7 -3.5t-7 3.5q-53 125 -128 280q-1 2 -3.5 2t-3.5 -2q-66 -138 -127 -280q-2 -3 -7 -3.5t-7 3.5q-99 255 -180 404q-1 2 0 5t3 3q44 0 88 -2q5 -2 6 -4q35 -116 108 -278q4 -7 7 0q80 155 127 288q2 4 7 4t7 -4 q44 -128 123 -287q4 -4 7 0q63 133 110 279q2 2 4 2q30 2 52 2z" />
<glyph unicode="x" horiz-adv-x="400" d="M234 230q-2 -2 0 -5q113 -160 170 -219q3 -8 -3 -8q-61 0 -90 2q-2 0 -6 4q-37 58 -114 165q-2 2 -4 0q-88 -111 -125 -165q-2 -2 -6 -4q-30 -2 -45 -2q-3 0 -4.5 3t0.5 5q62 60 162 190q2 2 0 6q-88 124 -150 192q-1 1 0 4.5t2 3.5q30 0 90 -2q5 -2 7 -4q32 -53 94 -140 q2 -2 4 0q89 115 106 141q2 3 5 3q36 2 47 2q1 0 2 -3t0 -5q-49 -44 -142 -164z" />
<glyph unicode="y" horiz-adv-x="399" d="M220 13q-74 -168 -113 -267q-3 -5 -6 -5q-12 -3 -45 -3q-1 0 -2.5 3t-0.5 5q59 102 129 267q1 3 0 6q-27 68 -88.5 201.5t-88.5 173.5q-1 2 0.5 5t2.5 3q45 0 87 -2q5 0 7 -4q43 -133 122 -290q2 -2 4 0q87 180 123 290q2 4 5 4q20 2 44 2q6 -3 3 -8q-40 -59 -183 -381z " />
<glyph unicode="z" horiz-adv-x="420" d="M182 373q-60 0 -110 -11q-4 0 -4 3q0 11 4 33q2 4 5 4q38 -2 140 -2q101 0 147 2q3 0 5 -3.5t1 -5.5q-92 -124 -234 -361q0 -3 2 -3q55 -2 140 -2q74 0 113 9q3 0 5 -2q0 -20 -4 -32q-1 -4 -5 -4q-39 2 -162 2q-139 0 -193 -2q-5 0 -3 6q117 166 235 362q0 4 -3 5 q-30 2 -79 2z" />
<glyph unicode="{" horiz-adv-x="319" d="M266 -70q2 -3 0.5 -13.5t-3.5 -11.5q-64 3 -101.5 39.5t-30.5 86.5q11 81 20 194q3 35 -16 50t-61 18q-1 2 -1 13.5t1 14.5q42 2 61 17.5t16 50.5q-9 113 -20 194q-7 49 31.5 86.5t100.5 39.5q2 -1 3.5 -11.5t-0.5 -13.5q-34 -6 -52 -29t-16 -50q12 -129 21 -185 q14 -97 -79 -107q-2 -1 -2 -3t2 -3q46 -5 65 -35t12 -78q-9 -59 -21 -185q-2 -27 16.5 -50t53.5 -29z" />
<glyph unicode="|" horiz-adv-x="226" d="M128 727v-1000q-10 -2 -15 -2q-7 0 -15 2v1000q8 2 15 2q5 0 15 -2z" />
<glyph unicode="}" horiz-adv-x="319" d="M53 684q-2 3 -0.5 13.5t3.5 11.5q64 -3 101.5 -39.5t30.5 -86.5q-11 -81 -20 -194q-3 -35 16 -50t61 -18q1 -2 1 -13.5t-1 -14.5q-42 -2 -61 -17.5t-16 -50.5q9 -113 20 -194q7 -49 -31.5 -86.5t-100.5 -39.5q-2 1 -3.5 11.5t0.5 13.5q34 6 52 29t16 50q-12 126 -21 185 q-14 97 79 107q1 1 1 3t-1 3q-46 5 -65 35t-12 78q9 56 21 185q2 27 -16.5 50t-53.5 29z" />
<glyph unicode="~" horiz-adv-x="540" d="M136 236q-39 0 -69 -42q-4 -4 -10.5 0.5t-4.5 9.5q44 72 121 72q54 0 112 -36q78 -48 119 -48q39 0 69 42q4 4 10.5 -0.5t4.5 -9.5q-44 -72 -121 -72q-54 0 -112 36q-47 29 -70.5 38.5t-48.5 9.5z" />
<glyph unicode="&#xaa;" horiz-adv-x="423" d="M396 45q4 2 8.5 -2.5t2.5 -8.5q-40 -47 -90 -47q-44 0 -54 47q0 1 -1.5 1.5t-2.5 -0.5q-47 -47 -115 -47q-44 0 -75.5 37t-31.5 88q0 32 15.5 50.5t56.5 36.5q58 25 145 49q8 3 8 46q0 45 -16 66t-56 21q-30 0 -55.5 -15.5t-35.5 -42.5q-2 -3 -7 -3.5t-7 2.5q-7 16 -7 41 q0 7 5 10q46 38 121 38q74 0 100.5 -30t24.5 -92q-3 -82 -3 -160q0 -59 7.5 -80.5t22.5 -21.5q19 0 40 17zM253 65q9 15 8 53q-1 27 -1 93q-3 3 -4 3q-60 -5 -107 -31q-22 -12 -29 -23t-7 -35q0 -42 18 -69.5t48 -27.5q23 0 44 11t30 26z" />
<glyph unicode="&#xad;" horiz-adv-x="309" d="M219 220q15 1 27 4q3 1 6 -3t2 -7q-19 -19 -32.5 -24.5t-34.5 -5.5q-60 0 -99 -4q-16 -1 -25 -5q-3 -1 -6 3t-2 7q20 20 31.5 25.5t33.5 5.5q52 0 99 4z" />
<glyph unicode="&#xb2;" horiz-adv-x="372" d="M333 59q2 1 8.5 -1t6.5 -3q0 -21 -9 -52q-3 -5 -8 -5q-53 2 -160 2q-120 0 -152 -2q-2 0 -3.5 3t-0.5 5q43 33 89 84q65 70 91 114t26 92q0 86 -74 86q-41 0 -61 -43q-2 -2 -6 -2t-6 2q-6 18 -6 38q0 6 5 9q41 27 107 27q50 0 83.5 -27t33.5 -70q0 -30 -19.5 -65.5 t-74.5 -96.5q-49 -54 -84 -98q-1 -1 -0.5 -2.5t1.5 -1.5q35 -2 103 -2q56 0 110 9z" />
<glyph unicode="&#xb3;" horiz-adv-x="363" d="M76 150q72 48 97 79.5t25 73.5q0 79 -74 79q-42 0 -63 -41q-1 -1 -6 -1t-6 1q-4 16 -4 38q2 5 5 7q41 27 107 27q50 0 83.5 -27t33.5 -70q0 -40 -28 -72.5t-84 -67.5q-1 -1 -0.5 -2.5t1.5 -1.5q64 0 103.5 -29t39.5 -81q0 -76 -74 -149t-183 -123q-5 -2 -9 0 q-20 12 -26 29q0 9 8 9q27 4 63 19.5t56 29.5q89 61 89 157q0 114 -94 114q-22 0 -46 -18q-5 -2 -11.5 7t-2.5 13z" />
<glyph unicode="&#xb9;" horiz-adv-x="322" d="M205 410q2 1 5.5 -0.5t3.5 -3.5l-4 -173q0 -165 4 -229q0 -4 -4 -4h-66q-4 0 -4 4q4 64 4 196v145q0 5 -5 7q-37 5 -95 5q-2 1 -2 6t2 6q27 4 55.5 11t60.5 16z" />
<glyph unicode="&#xba;" horiz-adv-x="504" d="M252 412q97 0 152.5 -58t55.5 -144q0 -101 -58 -161.5t-150 -60.5q-97 0 -152.5 58t-55.5 144q0 101 58 161.5t150 60.5zM258 18q58 0 92 42t34 118q0 89 -38 146.5t-100 57.5q-58 0 -92 -42t-34 -118q0 -89 38 -146.5t100 -57.5z" />
<glyph unicode="&#xc0;" d="M169 881q32 0 63 -50q41 -67 63 -93q-1 -4 -6.5 -9t-9.5 -6q-47 37 -92 63q-51 29 -51 62q0 15 9.5 24t23.5 9zM294 658q174 -451 280 -652q2 -8 -7 -8q-66 0 -87 2q-8 1 -10 6q-18 61 -95 253q-3 5 -8 7q-62 2 -101 2q-45 0 -101 -2q-9 -2 -12 -10q-63 -155 -92 -254 q0 -2 -3 -2q-26 -2 -56 -2q-3 0 -4.5 3t-0.5 5q72 151 124 276l152 376q3 5 10.5 5t10.5 -5zM177 316q-2 -8 6 -10q31 -2 80 -2q52 0 85 2q8 2 5 10l-85 208q-4 5 -7 0z" />
<glyph unicode="&#xc2;" d="M302 1146l204 -409q-1 -2 -12 -7.5t-14 -6.5l-193 389q-2 2 -4 0l-198 -389q-3 0 -13.5 5.5t-11.5 7.5l210 410q3 1 15.5 1t16.5 -1zM294 658q174 -451 280 -652q2 -8 -7 -8q-66 0 -87 2q-8 1 -10 6q-18 61 -95 253q-3 5 -8 7q-62 2 -101 2q-45 0 -101 -2q-9 -2 -12 -10 q-63 -155 -92 -254q0 -2 -3 -2q-26 -2 -56 -2q-3 0 -4.5 3t-0.5 5q72 151 124 276l152 376q3 5 10.5 5t10.5 -5zM177 316q-2 -8 6 -10q31 -2 80 -2q52 0 85 2q8 2 5 10l-85 208q-4 5 -7 0z" />
<glyph unicode="&#xc3;" d="M149 807q-39 0 -69 -42q-4 -4 -10.5 0.5t-4.5 9.5q44 72 121 72q54 0 112 -36q78 -48 119 -48q39 0 69 42q4 4 10.5 -0.5t4.5 -9.5q-44 -72 -121 -72q-54 0 -112 36q-47 29 -70.5 38.5t-48.5 9.5zM294 658q174 -451 280 -652q2 -8 -7 -8q-66 0 -87 2q-8 1 -10 6 q-18 61 -95 253q-3 5 -8 7q-62 2 -101 2q-45 0 -101 -2q-9 -2 -12 -10q-63 -155 -92 -254q0 -2 -3 -2q-26 -2 -56 -2q-3 0 -4.5 3t-0.5 5q72 151 124 276l152 376q3 5 10.5 5t10.5 -5zM177 316q-2 -8 6 -10q31 -2 80 -2q52 0 85 2q8 2 5 10l-85 208q-4 5 -7 0z" />
<glyph unicode="&#xc8;" horiz-adv-x="411" d="M97 878q32 0 63 -50q41 -67 63 -93q-1 -4 -6.5 -9t-9.5 -6q-47 37 -92 63q-51 29 -51 62q0 15 9.5 24t23.5 9zM223 614q-83 0 -83 -4q-2 -100 -2 -258q0 -4 87 -4q74 0 103 4q4 0 4 -4q-1 -16 -7 -33q-3 -5 -11 -5q-44 4 -89 4q-87 0 -87 -4q0 -171 2 -220 q1 -25 7.5 -36.5t24.5 -15.5q20 -4 58 -4q94 0 146 5q9 0 11 -7q-2 -15 -6 -31q-1 -3 -5 -3q-32 2 -143 2q-85 0 -165 -2q-4 0 -4 4q4 180 4 322t-4 322q0 4 4 4q53 -2 155 -2q97 0 133 2q4 0 5 -3q3 -12 5 -33q-1 -5 -11 -5q-65 5 -132 5z" />
<glyph unicode="&#xca;" horiz-adv-x="411" d="M231 1143l204 -409q-1 -2 -12 -7.5t-14 -6.5l-193 389q-2 2 -4 0l-198 -389q-3 0 -13.5 5.5t-11.5 7.5l210 410q3 1 15.5 1t16.5 -1zM223 614q-83 0 -83 -4q-2 -100 -2 -258q0 -4 87 -4q74 0 103 4q4 0 4 -4q-1 -16 -7 -33q-3 -5 -11 -5q-44 4 -89 4q-87 0 -87 -4 q0 -171 2 -220q1 -25 7.5 -36.5t24.5 -15.5q20 -4 58 -4q94 0 146 5q9 0 11 -7q-2 -15 -6 -31q-1 -3 -5 -3q-32 2 -143 2q-85 0 -165 -2q-4 0 -4 4q4 180 4 322t-4 322q0 4 4 4q53 -2 155 -2q97 0 133 2q4 0 5 -3q3 -12 5 -33q-1 -5 -11 -5q-65 5 -132 5z" />
<glyph unicode="&#xcc;" horiz-adv-x="206" d="M-12 878q32 0 63 -50q41 -67 63 -93q-1 -4 -6.5 -9t-9.5 -6q-47 37 -92 63q-51 29 -51 62q0 15 9.5 24t23.5 9zM138 324q0 -140 4 -320q0 -4 -4 -4h-70q-4 0 -4 4q4 180 4 320t-4 320q0 4 4 4h70q4 0 4 -4q-4 -180 -4 -320z" />
<glyph unicode="&#xce;" horiz-adv-x="206" d="M122 1143l204 -409q-1 -2 -12 -7.5t-14 -6.5l-193 389q-2 2 -4 0l-198 -389q-3 0 -13.5 5.5t-11.5 7.5l210 410q3 1 15.5 1t16.5 -1zM138 324q0 -140 4 -320q0 -4 -4 -4h-70q-4 0 -4 4q4 180 4 320t-4 320q0 4 4 4h70q4 0 4 -4q-4 -180 -4 -320z" />
<glyph unicode="&#xd1;" horiz-adv-x="641" d="M-97 804q-39 0 -69 -42q-4 -4 -10.5 0.5t-4.5 9.5q44 72 121 72q54 0 112 -36q78 -48 119 -48q39 0 69 42q4 4 10.5 -0.5t4.5 -9.5q-44 -72 -121 -72q-54 0 -112 36q-47 29 -70.5 38.5t-48.5 9.5zM533 644q0 4 4 4h40q4 0 4 -4q-4 -148 -4 -320q0 -202 3 -336 q0 -3 -5.5 -4t-9.5 1l-245 307l-213 257q-2 2 -4 -1q2 -68 2 -244q0 -132 4 -300q0 -4 -4 -4h-40q-4 0 -4 4q4 148 4 320v258q0 15 -7 26q-4 7 -24 34q-1 3 0 5.5t3 2.5q36 0 84 -2q5 0 9 -4q170 -223 405 -498q2 -2 4 1q-2 68 -2 197q0 132 -4 300z" />
<glyph unicode="&#xd2;" horiz-adv-x="744" d="M258 878q32 0 63 -50q41 -67 63 -93q-1 -4 -6.5 -9t-9.5 -6q-47 37 -92 63q-51 29 -51 62q0 15 9.5 24t23.5 9zM373 660q148 0 242 -93t94 -234q0 -157 -103.5 -251t-249.5 -94q-141 0 -231 93t-90 234q0 153 95.5 249t242.5 96zM378 22q103 0 175 73t72 207 q0 145 -79 234.5t-195 89.5q-97 0 -164.5 -73t-67.5 -207q0 -145 70.5 -234.5t188.5 -89.5z" />
<glyph unicode="&#xd4;" horiz-adv-x="744" d="M392 1143l204 -409q-1 -2 -12 -7.5t-14 -6.5l-193 389q-2 2 -4 0l-198 -389q-3 0 -13.5 5.5t-11.5 7.5l210 410q3 1 15.5 1t16.5 -1zM373 660q148 0 242 -93t94 -234q0 -157 -103.5 -251t-249.5 -94q-141 0 -231 93t-90 234q0 153 95.5 249t242.5 96zM378 22 q103 0 175 73t72 207q0 145 -79 234.5t-195 89.5q-97 0 -164.5 -73t-67.5 -207q0 -145 70.5 -234.5t188.5 -89.5z" />
<glyph unicode="&#xd5;" horiz-adv-x="744" d="M239 804q-39 0 -69 -42q-4 -4 -10.5 0.5t-4.5 9.5q44 72 121 72q54 0 112 -36q78 -48 119 -48q39 0 69 42q4 4 10.5 -0.5t4.5 -9.5q-44 -72 -121 -72q-54 0 -112 36q-47 29 -70.5 38.5t-48.5 9.5zM373 660q148 0 242 -93t94 -234q0 -157 -103.5 -251t-249.5 -94 q-141 0 -231 93t-90 234q0 153 95.5 249t242.5 96zM378 22q103 0 175 73t72 207q0 145 -79 234.5t-195 89.5q-97 0 -164.5 -73t-67.5 -207q0 -145 70.5 -234.5t188.5 -89.5z" />
<glyph unicode="&#xd9;" horiz-adv-x="565" d="M171 878q32 0 63 -50q41 -67 63 -93q-1 -4 -6.5 -9t-9.5 -6q-47 37 -92 63q-51 29 -51 62q0 15 9.5 24t23.5 9zM62 213q0 251 -4 431q0 4 4 4h70q4 0 4 -4q-4 -180 -4 -401q0 -115 42.5 -168t129.5 -53q72 0 118.5 49t46.5 139q0 266 -4 434q0 4 4 4h40q4 0 4 -4 q-4 -148 -4 -416q0 -116 -61 -178.5t-171 -62.5q-100 0 -157.5 59t-57.5 167z" />
<glyph unicode="&#xdb;" horiz-adv-x="565" d="M304 1143l204 -409q-1 -2 -12 -7.5t-14 -6.5l-193 389q-2 2 -4 0l-198 -389q-3 0 -13.5 5.5t-11.5 7.5l210 410q3 1 15.5 1t16.5 -1zM62 213q0 251 -4 431q0 4 4 4h70q4 0 4 -4q-4 -180 -4 -401q0 -115 42.5 -168t129.5 -53q72 0 118.5 49t46.5 139q0 266 -4 434q0 4 4 4 h40q4 0 4 -4q-4 -148 -4 -416q0 -116 -61 -178.5t-171 -62.5q-100 0 -157.5 59t-57.5 167z" />
<glyph unicode="&#xe0;" horiz-adv-x="423" d="M89 630q32 0 63 -50q41 -67 63 -93q-1 -4 -6.5 -9t-9.5 -6q-47 37 -92 63q-51 29 -51 62q0 15 9.5 24t23.5 9zM396 45q4 2 8.5 -2.5t2.5 -8.5q-40 -47 -90 -47q-44 0 -54 47q0 1 -1.5 1.5t-2.5 -0.5q-47 -47 -115 -47q-44 0 -75.5 37t-31.5 88q0 32 15.5 50.5t56.5 36.5 q58 25 145 49q8 3 8 46q0 45 -16 66t-56 21q-30 0 -55.5 -15.5t-35.5 -42.5q-2 -3 -7 -3.5t-7 2.5q-7 16 -7 41q0 7 5 10q46 38 121 38q74 0 100.5 -30t24.5 -92q-3 -82 -3 -160q0 -59 7.5 -80.5t22.5 -21.5q19 0 40 17zM253 65q9 15 8 53q-1 27 -1 93q-3 3 -4 3 q-60 -5 -107 -31q-22 -12 -29 -23t-7 -35q0 -42 18 -69.5t48 -27.5q23 0 44 11t30 26z" />
<glyph unicode="&#xe2;" horiz-adv-x="423" d="M223 895l204 -409q-1 -2 -12 -7.5t-14 -6.5l-193 389q-2 2 -4 0l-198 -389q-3 0 -13.5 5.5t-11.5 7.5l210 410q3 1 15.5 1t16.5 -1zM396 45q4 2 8.5 -2.5t2.5 -8.5q-40 -47 -90 -47q-44 0 -54 47q0 1 -1.5 1.5t-2.5 -0.5q-47 -47 -115 -47q-44 0 -75.5 37t-31.5 88 q0 32 15.5 50.5t56.5 36.5q58 25 145 49q8 3 8 46q0 45 -16 66t-56 21q-30 0 -55.5 -15.5t-35.5 -42.5q-2 -3 -7 -3.5t-7 2.5q-7 16 -7 41q0 7 5 10q46 38 121 38q74 0 100.5 -30t24.5 -92q-3 -82 -3 -160q0 -59 7.5 -80.5t22.5 -21.5q19 0 40 17zM253 65q9 15 8 53 q-1 27 -1 93q-3 3 -4 3q-60 -5 -107 -31q-22 -12 -29 -23t-7 -35q0 -42 18 -69.5t48 -27.5q23 0 44 11t30 26z" />
<glyph unicode="&#xe3;" horiz-adv-x="423" d="M70 556q-39 0 -69 -42q-4 -4 -10.5 0.5t-4.5 9.5q44 72 121 72q54 0 112 -36q78 -48 119 -48q39 0 69 42q4 4 10.5 -0.5t4.5 -9.5q-44 -72 -121 -72q-54 0 -112 36q-47 29 -70.5 38.5t-48.5 9.5zM396 45q4 2 8.5 -2.5t2.5 -8.5q-40 -47 -90 -47q-44 0 -54 47 q0 1 -1.5 1.5t-2.5 -0.5q-47 -47 -115 -47q-44 0 -75.5 37t-31.5 88q0 32 15.5 50.5t56.5 36.5q58 25 145 49q8 3 8 46q0 45 -16 66t-56 21q-30 0 -55.5 -15.5t-35.5 -42.5q-2 -3 -7 -3.5t-7 2.5q-7 16 -7 41q0 7 5 10q46 38 121 38q74 0 100.5 -30t24.5 -92q-3 -82 -3 -160 q0 -59 7.5 -80.5t22.5 -21.5q19 0 40 17zM253 65q9 15 8 53q-1 27 -1 93q-3 3 -4 3q-60 -5 -107 -31q-22 -12 -29 -23t-7 -35q0 -42 18 -69.5t48 -27.5q23 0 44 11t30 26z" />
<glyph unicode="&#xe8;" horiz-adv-x="432" d="M132 630q32 0 63 -50q41 -67 63 -93q-1 -4 -6.5 -9t-9.5 -6q-47 37 -92 63q-51 29 -51 62q0 15 9.5 24t23.5 9zM382 71q5 3 10.5 -3t1.5 -11q-24 -28 -66 -49t-77 -21q-93 0 -150 56.5t-57 150.5q0 95 60 156.5t143 61.5q61 0 100 -39.5t39 -95.5q0 -7 -3.5 -10.5 t-20.5 -7t-51.5 -4.5t-97.5 -1h-81q-6 0 -7 -4q-5 -22 -5 -42q0 -83 41.5 -131.5t108.5 -48.5q59 0 112 43zM132 289q-1 -5 4 -5h87q90 0 90 10q0 39 -19 63.5t-52 24.5q-40 0 -69.5 -25.5t-40.5 -67.5z" />
<glyph unicode="&#xea;" horiz-adv-x="432" d="M266 895l204 -409q-1 -2 -12 -7.5t-14 -6.5l-193 389q-2 2 -4 0l-198 -389q-3 0 -13.5 5.5t-11.5 7.5l210 410q3 1 15.5 1t16.5 -1zM382 71q5 3 10.5 -3t1.5 -11q-24 -28 -66 -49t-77 -21q-93 0 -150 56.5t-57 150.5q0 95 60 156.5t143 61.5q61 0 100 -39.5t39 -95.5 q0 -7 -3.5 -10.5t-20.5 -7t-51.5 -4.5t-97.5 -1h-81q-6 0 -7 -4q-5 -22 -5 -42q0 -83 41.5 -131.5t108.5 -48.5q59 0 112 43zM132 289q-1 -5 4 -5h87q90 0 90 10q0 39 -19 63.5t-52 24.5q-40 0 -69.5 -25.5t-40.5 -67.5z" />
<glyph unicode="&#xec;" horiz-adv-x="210" d="M-9 797q32 0 63 -50q41 -67 63 -93q-1 -4 -6.5 -9t-9.5 -6q-47 37 -92 63q-51 29 -51 62q0 15 9.5 24t23.5 9zM150 536q0 -20 -13.5 -33.5t-33.5 -13.5q-18 0 -30.5 12t-12.5 31q0 20 13 33.5t33 13.5q19 0 31.5 -12.5t12.5 -30.5zM138 233q0 -165 4 -229q0 -4 -4 -4h-66 q-4 0 -4 4q4 64 4 196q0 78 -3 135q-2 29 -10 54q-1 3 1 7.5t6 5.5q33 4 72 4q4 0 4 -4z" />
<glyph unicode="&#xee;" horiz-adv-x="210" d="M125 1062l204 -409q-1 -2 -12 -7.5t-14 -6.5l-193 389q-2 2 -4 0l-198 -389q-3 0 -13.5 5.5t-11.5 7.5l210 410q3 1 15.5 1t16.5 -1zM150 536q0 -20 -13.5 -33.5t-33.5 -13.5q-18 0 -30.5 12t-12.5 31q0 20 13 33.5t33 13.5q19 0 31.5 -12.5t12.5 -30.5zM138 233 q0 -165 4 -229q0 -4 -4 -4h-66q-4 0 -4 4q4 64 4 196q0 78 -3 135q-2 29 -10 54q-1 3 1 7.5t6 5.5q33 4 72 4q4 0 4 -4z" />
<glyph unicode="&#xf1;" horiz-adv-x="451" d="M93 557q-39 0 -69 -42q-4 -4 -10.5 0.5t-4.5 9.5q44 72 121 72q54 0 112 -36q78 -48 119 -48q39 0 69 42q4 4 10.5 -0.5t4.5 -9.5q-44 -72 -121 -72q-54 0 -112 36q-47 29 -70.5 38.5t-48.5 9.5zM332 0q-11 0 -11 112v142q0 67 -16.5 93t-53.5 26q-52 0 -90 -42 q-23 -27 -23 -88q0 -175 4 -239q0 -4 -4 -4h-66q-4 0 -4 4q4 64 4 196q0 78 -3 135q-2 29 -10 54q-1 3 1 7.5t6 5.5q33 4 70 4q4 0 4 -4q-2 -32 -2 -53q0 -3 4 -1q53 65 136 65q58 0 83.5 -34.5t25.5 -106.5q0 -160 3 -215q2 -33 5 -53q0 -4 -4 -4h-59z" />
<glyph unicode="&#xf2;" horiz-adv-x="504" d="M137 630q32 0 63 -50q41 -67 63 -93q-1 -4 -6.5 -9t-9.5 -6q-47 37 -92 63q-51 29 -51 62q0 15 9.5 24t23.5 9zM252 412q97 0 152.5 -58t55.5 -144q0 -101 -58 -161.5t-150 -60.5q-97 0 -152.5 58t-55.5 144q0 101 58 161.5t150 60.5zM258 18q58 0 92 42t34 118 q0 89 -38 146.5t-100 57.5q-58 0 -92 -42t-34 -118q0 -89 38 -146.5t100 -57.5z" />
<glyph unicode="&#xf4;" horiz-adv-x="504" d="M271 895l204 -409q-1 -2 -12 -7.5t-14 -6.5l-193 389q-2 2 -4 0l-198 -389q-3 0 -13.5 5.5t-11.5 7.5l210 410q3 1 15.5 1t16.5 -1zM252 412q97 0 152.5 -58t55.5 -144q0 -101 -58 -161.5t-150 -60.5q-97 0 -152.5 58t-55.5 144q0 101 58 161.5t150 60.5zM258 18 q58 0 92 42t34 118q0 89 -38 146.5t-100 57.5q-58 0 -92 -42t-34 -118q0 -89 38 -146.5t100 -57.5z" />
<glyph unicode="&#xf5;" horiz-adv-x="504" d="M118 556q-39 0 -69 -42q-4 -4 -10.5 0.5t-4.5 9.5q44 72 121 72q54 0 112 -36q78 -48 119 -48q39 0 69 42q4 4 10.5 -0.5t4.5 -9.5q-44 -72 -121 -72q-54 0 -112 36q-47 29 -70.5 38.5t-48.5 9.5zM252 412q97 0 152.5 -58t55.5 -144q0 -101 -58 -161.5t-150 -60.5 q-97 0 -152.5 58t-55.5 144q0 101 58 161.5t150 60.5zM258 18q58 0 92 42t34 118q0 89 -38 146.5t-100 57.5q-58 0 -92 -42t-34 -118q0 -89 38 -146.5t100 -57.5z" />
<glyph unicode="&#xf9;" horiz-adv-x="456" d="M145 630q32 0 63 -50q41 -67 63 -93q-1 -4 -6.5 -9t-9.5 -6q-47 37 -92 63q-51 29 -51 62q0 15 9.5 24t23.5 9zM318 51q0 3 -4 1q-52 -64 -136 -64q-58 0 -83.5 34t-25.5 106q0 150 -3 207q-2 29 -10 54q-1 3 1 7.5t6 5.5q33 4 72 4q4 0 4 -4l-4 -256q0 -67 16.5 -92.5 t53.5 -25.5q53 0 90 41q23 27 23 88q0 121 -3 178q-2 29 -10 54q-1 3 1 7.5t6 5.5q33 4 72 4q4 0 4 -4l-4 -202q0 -132 4 -196q0 -4 -4 -4h-63q-4 0 -4 4q1 16 1 47z" />
<glyph unicode="&#xfb;" horiz-adv-x="456" d="M278 895l204 -409q-1 -2 -12 -7.5t-14 -6.5l-193 389q-2 2 -4 0l-198 -389q-3 0 -13.5 5.5t-11.5 7.5l210 410q3 1 15.5 1t16.5 -1zM318 51q0 3 -4 1q-52 -64 -136 -64q-58 0 -83.5 34t-25.5 106q0 150 -3 207q-2 29 -10 54q-1 3 1 7.5t6 5.5q33 4 72 4q4 0 4 -4l-4 -256 q0 -67 16.5 -92.5t53.5 -25.5q53 0 90 41q23 27 23 88q0 121 -3 178q-2 29 -10 54q-1 3 1 7.5t6 5.5q33 4 72 4q4 0 4 -4l-4 -202q0 -132 4 -196q0 -4 -4 -4h-63q-4 0 -4 4q1 16 1 47z" />
<glyph unicode="&#x152;" horiz-adv-x="1155" d="M967 614q-83 0 -83 -4q-2 -100 -2 -258q0 -4 87 -4q74 0 103 4q4 0 4 -4q-1 -16 -7 -33q-3 -5 -11 -5q-44 4 -89 4q-87 0 -87 -4q0 -171 2 -220q1 -25 7.5 -36.5t24.5 -15.5q20 -4 58 -4q94 0 146 5q9 0 11 -7q-2 -15 -6 -31q-1 -3 -5 -3q-32 2 -143 2q-85 0 -165 -2 q-4 0 -4 4q4 180 4 322t-4 322q0 4 4 4q53 -2 155 -2q97 0 133 2q4 0 5 -3q3 -12 5 -33q-1 -5 -11 -5q-65 5 -132 5zM373 660q148 0 242 -93t94 -234q0 -157 -103.5 -251t-249.5 -94q-141 0 -231 93t-90 234q0 153 95.5 249t242.5 96zM378 22q103 0 175 73t72 207 q0 145 -79 234.5t-195 89.5q-97 0 -164.5 -73t-67.5 -207q0 -145 70.5 -234.5t188.5 -89.5z" />
<glyph unicode="&#x153;" horiz-adv-x="936" d="M886 71q5 3 10.5 -3t1.5 -11q-24 -28 -66 -49t-77 -21q-93 0 -150 56.5t-57 150.5q0 95 60 156.5t143 61.5q61 0 100 -39.5t39 -95.5q0 -7 -3.5 -10.5t-20.5 -7t-51.5 -4.5t-97.5 -1h-81q-6 0 -7 -4q-5 -22 -5 -42q0 -83 41.5 -131.5t108.5 -48.5q59 0 112 43zM636 289 q-1 -5 4 -5h87q90 0 90 10q0 39 -19 63.5t-52 24.5q-40 0 -69.5 -25.5t-40.5 -67.5zM252 412q97 0 152.5 -58t55.5 -144q0 -101 -58 -161.5t-150 -60.5q-97 0 -152.5 58t-55.5 144q0 101 58 161.5t150 60.5zM258 18q58 0 92 42t34 118q0 89 -38 146.5t-100 57.5 q-58 0 -92 -42t-34 -118q0 -89 38 -146.5t100 -57.5z" />
<glyph unicode="&#x2c6;" horiz-adv-x="582" d="M310 636l204 -409q-1 -2 -12 -7.5t-14 -6.5l-193 389q-2 2 -4 0l-198 -389q-3 0 -13.5 5.5t-11.5 7.5l210 410q3 1 15.5 1t16.5 -1z" />
<glyph unicode="&#x2dc;" horiz-adv-x="242" d="M-134 144q-39 0 -69 -42q-4 -4 -10.5 0.5t-4.5 9.5q44 72 121 72q54 0 112 -36q78 -48 119 -48q39 0 69 42q4 4 10.5 -0.5t4.5 -9.5q-44 -72 -121 -72q-54 0 -112 36q-47 29 -70.5 38.5t-48.5 9.5z" />
<glyph unicode="&#x2000;" horiz-adv-x="573" />
<glyph unicode="&#x2001;" horiz-adv-x="1147" />
<glyph unicode="&#x2002;" horiz-adv-x="573" />
<glyph unicode="&#x2003;" horiz-adv-x="1147" />
<glyph unicode="&#x2004;" horiz-adv-x="382" />
<glyph unicode="&#x2005;" horiz-adv-x="286" />
<glyph unicode="&#x2006;" horiz-adv-x="191" />
<glyph unicode="&#x2007;" horiz-adv-x="191" />
<glyph unicode="&#x2008;" horiz-adv-x="143" />
<glyph unicode="&#x2009;" horiz-adv-x="229" />
<glyph unicode="&#x200a;" horiz-adv-x="63" />
<glyph unicode="&#x2010;" horiz-adv-x="309" d="M219 220q15 1 27 4q3 1 6 -3t2 -7q-19 -19 -32.5 -24.5t-34.5 -5.5q-60 0 -99 -4q-16 -1 -25 -5q-3 -1 -6 3t-2 7q20 20 31.5 25.5t33.5 5.5q52 0 99 4z" />
<glyph unicode="&#x2011;" horiz-adv-x="309" d="M219 220q15 1 27 4q3 1 6 -3t2 -7q-19 -19 -32.5 -24.5t-34.5 -5.5q-60 0 -99 -4q-16 -1 -25 -5q-3 -1 -6 3t-2 7q20 20 31.5 25.5t33.5 5.5q52 0 99 4z" />
<glyph unicode="&#x2013;" horiz-adv-x="500" d="M55 175v49h390v-49h-390z" />
<glyph unicode="&#x2014;" horiz-adv-x="1000" d="M55 175v49h890v-49h-890z" />
<glyph unicode="&#x2018;" horiz-adv-x="207" d="M48 582q0 78 101 129q8 2 14 -8.5t0 -16.5q-37 -23 -49.5 -38t-12.5 -32q0 -27 30 -43q21 -11 21 -35q0 -16 -9.5 -27t-27.5 -11q-31 0 -49 22.5t-18 59.5z" />
<glyph unicode="&#x2019;" horiz-adv-x="207" d="M159 629q0 -78 -101 -129q-8 -2 -14 8.5t0 16.5q37 23 49.5 38t12.5 32q0 27 -30 43q-21 11 -21 35q0 16 9.5 27t27.5 11q30 0 48.5 -23t18.5 -59z" />
<glyph unicode="&#x201c;" horiz-adv-x="356" d="M48 582q0 78 101 129q8 2 14 -8.5t0 -16.5q-37 -23 -49.5 -38t-12.5 -32q0 -27 30 -43q21 -11 21 -35q0 -16 -9.5 -27t-27.5 -11q-31 0 -49 22.5t-18 59.5zM197 582q0 78 101 129q8 2 14 -8.5t0 -16.5q-37 -23 -49.5 -38t-12.5 -32q0 -27 30 -43q21 -11 21 -35 q0 -16 -9.5 -27t-27.5 -11q-31 0 -49 22.5t-18 59.5z" />
<glyph unicode="&#x201d;" horiz-adv-x="356" d="M308 629q0 -78 -101 -129q-8 -2 -14 8.5t0 16.5q37 23 49.5 38t12.5 32q0 27 -30 43q-21 11 -21 35q0 16 9.5 27t27.5 11q30 0 48.5 -23t18.5 -59zM159 629q0 -78 -101 -129q-8 -2 -14 8.5t0 16.5q37 23 49.5 38t12.5 32q0 27 -30 43q-21 11 -21 35q0 16 9.5 27t27.5 11 q30 0 48.5 -23t18.5 -59z" />
<glyph unicode="&#x2026;" horiz-adv-x="600" d="M545 35q0 -20 -13.5 -33.5t-33.5 -13.5q-18 0 -30.5 12t-12.5 31q0 20 13 33.5t33 13.5q19 0 31.5 -12.5t12.5 -30.5zM345 35q0 -20 -13.5 -33.5t-33.5 -13.5q-18 0 -30.5 12t-12.5 31q0 20 13 33.5t33 13.5q19 0 31.5 -12.5t12.5 -30.5zM145 35q0 -20 -13.5 -33.5 t-33.5 -13.5q-18 0 -30.5 12t-12.5 31q0 20 13 33.5t33 13.5q19 0 31.5 -12.5t12.5 -30.5z" />
<glyph unicode="&#x202f;" horiz-adv-x="229" />
<glyph unicode="&#x2039;" horiz-adv-x="531" d="M82 207l392 -193q0 -4 -5.5 -14.5t-8.5 -12.5l-413 206q-2 3 -2 16t2 17l414 206q4 -2 8 -10.5t4 -13.5l-391 -194q-2 -2 -2 -4t2 -3z" />
<glyph unicode="&#x203a;" horiz-adv-x="531" d="M449 212l-392 193q0 4 5.5 14.5t8.5 12.5l413 -206q2 -3 2 -16t-2 -17l-414 -206q-4 2 -8 10.5t-4 13.5l391 194q2 2 0 7z" />
<glyph unicode="&#x205f;" horiz-adv-x="286" />
<glyph unicode="&#x2122;" horiz-adv-x="1343" d="M1269 650q6 0 6 -6q-8 -23 -8 -43q0 -345 18 -597q0 -4 -4 -4h-71q-4 0 -4 4q1 47 -4.5 244.5t-10.5 290.5q-2 3 -4 1q-99 -191 -251 -524q-11 -10 -21 0q-109 250 -238 501q-4 4 -4 -1q-14 -381 -13 -512q0 -4 -4 -4h-36q-4 0 -4 4q6 101 12.5 306t6.5 291q0 8 -4 16 q-10 19 -15 27q-4 2 3 6q42 0 78 -2q5 0 8 -4q103 -246 238 -507q2 -2 4 0q128 250 239 505q2 5 8 6q18 2 75 2zM254 0q-4 0 -4 4q4 180 4 320v284q0 6 -80 6q-95 0 -150 -10q-4 -1 -10 1t-6 5q3 23 8 39q2 3 5 3q100 -4 268 -4q208 0 271 4q4 0 5 -3q-1 -20 -10 -41 q-1 -3 -8.5 -4.5t-11.5 0.5q-56 10 -131 10q-80 0 -80 -6v-284q0 -140 4 -320q0 -4 -4 -4h-70z" />
</font>
</defs>
</svg>
